# xmcd
#
# Track frame offsets:
#	150
#	14242
#	29847
#	44624
#	62036
#	79650
#	97937
#	113963
#
# Disc length: 1731 seconds
#
# Revision: 1
# Processed by: cddbd v1.5.2PL0 Copyright (c) Steve Scherf et al.
# Submitted via: audiograbber 1.83.01
#
DISCID=6c06c108
DTITLE=JonesTM - HC200744
DYEAR=2007
DGENRE=Country
TTITLE0=Ennis - Give Me Love
TTITLE1=Terri Clark - In My Next Life
TTITLE2=Whiskey Falls - Falling Into You [Radio Edit]
TTITLE3=Jill Scott - My Love [Album Version]
TTITLE4=Jagged Edge - Whole Town Laughing [Album Version]
TTITLE5=Chuck Loeb - Window Of The Soul [Album Version]
TTITLE6=Jeff Lorber - Grandma's Hands
TTITLE7=Darren Rahn - Breakin' Out
EXTD=
EXTT0=
EXTT1=
EXTT2=
EXTT3=
EXTT4=
EXTT5=
EXTT6=
EXTT7=
PLAYORDER=
